{
  "accessors": [
    {
      "bufferView": 2,
      "componentType": 5126,
      "count": 18377,
      "max": [
        116.78434753417969,
        312.5247497558594,
        259.28692626953125
      ],
      "min": [
        21.52941131591797,
        -207.8113555908203,
        -260.98760986328125
      ],
      "type": "VEC3"
    },
    {
      "bufferView": 2,
      "byteOffset": 220524,
      "componentType": 5126,
      "count": 18377,
      "max": [
        0.9999511241912842,
        0.9999182224273682,
        0.9999006390571594
      ],
      "min": [
        -0.9999508261680603,
        -0.999931275844574,
        -0.9999571442604065
      ],
      "type": "VEC3"
    },
    {
      "bufferView": 1,
      "componentType": 5126,
      "count": 18377,
      "max": [
        1.0,
        1.0
      ],
      "min": [
        0.0,
        0.0
      ],
      "type": "VEC2"
    },
    {
      "bufferView": 0,
      "componentType": 5125,
      "count": 99264,
      "type": "SCALAR"
    },
    {
      "bufferView": 2,
      "byteOffset": 441048,
      "componentType": 5126,
      "count": 507,
      "max": [
        347.9463195800781,
        671.1034545898438,
        462.4715270996094
      ],
      "min": [
        77.07075500488281,
        -129.2559814453125,
        -428.76190185546875
      ],
      "type": "VEC3"
    },
    {
      "bufferView": 2,
      "byteOffset": 447132,
      "componentType": 5126,
      "count": 507,
      "max": [
        0.9969022274017334,
        0.9719646573066711,
        0.9997091293334961
      ],
      "min": [
        -0.997164785861969,
        -0.9672141075134277,
        -0.9998745918273926
      ],
      "type": "VEC3"
    },
    {
      "bufferView": 1,
      "byteOffset": 147016,
      "componentType": 5126,
      "count": 507,
      "max": [
        1.0,
        1.0
      ],
      "min": [
        0.0,
        0.0
      ],
      "type": "VEC2"
    },
    {
      "bufferView": 0,
      "byteOffset": 397056,
      "componentType": 5125,
      "count": 2592,
      "type": "SCALAR"
    },
    {
      "bufferView": 2,
      "byteOffset": 453216,
      "componentType": 5126,
      "count": 325,
      "max": [
        1178.9019775390625,
        -1.8888254165649414,
        536.0326538085938
      ],
      "min": [
        55.910282135009766,
        -10.72299861907959,
        -1.541336178779602
      ],
      "type": "VEC3"
    },
    {
      "bufferView": 2,
      "byteOffset": 457116,
      "componentType": 5126,
      "count": 325,
      "max": [
        0.999997615814209,
        0.9999821186065674,
        0.9989659190177917
      ],
      "min": [
        -0.9999982118606567,
        -0.9999828338623047,
        -0.9994704723358154
      ],
      "type": "VEC3"
    },
    {
      "bufferView": 1,
      "byteOffset": 151072,
      "componentType": 5126,
      "count": 325,
      "max": [
        1.0,
        1.0
      ],
      "min": [
        0.0,
        0.0
      ],
      "type": "VEC2"
    },
    {
      "bufferView": 0,
      "byteOffset": 407424,
      "componentType": 5125,
      "count": 1728,
      "type": "SCALAR"
    },
    {
      "bufferView": 2,
      "byteOffset": 461016,
      "componentType": 5126,
      "count": 325,
      "max": [
        1178.9019775390625,
        -1.8888254165649414,
        536.0326538085938
      ],
      "min": [
        55.910282135009766,
        -10.72299861907959,
        -1.541336178779602
      ],
      "type": "VEC3"
    },
    {
      "bufferView": 2,
      "byteOffset": 464916,
      "componentType": 5126,
      "count": 325,
      "max": [
        0.999997615814209,
        0.9999821186065674,
        0.9989659190177917
      ],
      "min": [
        -0.9999982118606567,
        -0.9999828338623047,
        -0.9994704723358154
      ],
      "type": "VEC3"
    },
    {
      "bufferView": 1,
      "byteOffset": 153672,
      "componentType": 5126,
      "count": 325,
      "max": [
        1.0,
        1.0
      ],
      "min": [
        0.0,
        0.0
      ],
      "type": "VEC2"
    },
    {
      "bufferView": 0,
      "byteOffset": 414336,
      "componentType": 5125,
      "count": 1728,
      "type": "SCALAR"
    },
    {
      "bufferView": 2,
      "byteOffset": 468816,
      "componentType": 5126,
      "count": 325,
      "max": [
        1178.852783203125,
        -1.3958078622817993,
        535.0669555664063
      ],
      "min": [
        15.456957817077637,
        -10.16806411743164,
        -0.49309805035591125
      ],
      "type": "VEC3"
    },
    {
      "bufferView": 2,
      "byteOffset": 472716,
      "componentType": 5126,
      "count": 325,
      "max": [
        0.9956924319267273,
        0.9999977350234985,
        0.9999239444732666
      ],
      "min": [
        -0.9947841763496399,
        -0.9999963045120239,
        -0.9996739625930786
      ],
      "type": "VEC3"
    },
    {
      "bufferView": 1,
      "byteOffset": 156272,
      "componentType": 5126,
      "count": 325,
      "max": [
        1.0,
        1.0
      ],
      "min": [
        0.0,
        0.0
      ],
      "type": "VEC2"
    },
    {
      "bufferView": 0,
      "byteOffset": 421248,
      "componentType": 5125,
      "count": 1728,
      "type": "SCALAR"
    },
    {
      "bufferView": 2,
      "byteOffset": 476616,
      "componentType": 5126,
      "count": 65532,
      "max": [
        414.1396179199219,
        56.80113983154297,
        417.6224365234375
      ],
      "min": [
        -389.92578125,
        -196.33758544921875,
        -384.4862365722656
      ],
      "type": "VEC3"
    },
    {
      "bufferView": 2,
      "byteOffset": 1263000,
      "componentType": 5126,
      "count": 65532,
      "max": [
        0.9999805092811584,
        0.9999992847442627,
        0.9999940395355225
      ],
      "min": [
        -0.999999463558197,
        -0.9720598459243774,
        -0.9999891519546509
      ],
      "type": "VEC3"
    },
    {
      "bufferView": 1,
      "byteOffset": 158872,
      "componentType": 5126,
      "count": 65532,
      "max": [
        0.9930127263069153,
        0.9903157949447632
      ],
      "min": [
        0.007330955937504768,
        0.0018999576568603516
      ],
      "type": "VEC2"
    },
    {
      "bufferView": 1,
      "byteOffset": 683128,
      "componentType": 5126,
      "count": 65532,
      "max": [
        0.9930127263069153,
        0.9903157949447632
      ],
      "min": [
        0.007330955937504768,
        0.0018999576568603516
      ],
      "type": "VEC2"
    },
    {
      "bufferView": 0,
      "byteOffset": 428160,
      "componentType": 5125,
      "count": 363075,
      "type": "SCALAR"
    },
    {
      "bufferView": 2,
      "byteOffset": 2049384,
      "componentType": 5126,
      "count": 25215,
      "max": [
        413.7456359863281,
        73.33296966552734,
        419.91314697265625
      ],
      "min": [
        -389.6640319824219,
        -194.92137145996094,
        -379.91412353515625
      ],
      "type": "VEC3"
    },
    {
      "bufferView": 2,
      "byteOffset": 2351964,
      "componentType": 5126,
      "count": 25215,
      "max": [
        0.9999909996986389,
        0.9999990463256836,
        0.9999954700469971
      ],
      "min": [
        -0.9999735951423645,
        -0.9904950261116028,
        -0.999999463558197
      ],
      "type": "VEC3"
    },
    {
      "bufferView": 1,
      "byteOffset": 1207384,
      "componentType": 5126,
      "count": 25215,
      "max": [
        0.9934181571006775,
        0.9962003231048584
      ],
      "min": [
        1.0732062037277501e-05,
        0.0005849599838256836
      ],
      "type": "VEC2"
    },
    {
      "bufferView": 1,
      "byteOffset": 1409104,
      "componentType": 5126,
      "count": 25215,
      "max": [
        0.9934181571006775,
        0.9962003231048584
      ],
      "min": [
        1.0732062037277501e-05,
        0.0005849599838256836
      ],
      "type": "VEC2"
    },
    {
      "bufferView": 0,
      "byteOffset": 1880460,
      "componentType": 5125,
      "count": 122580,
      "type": "SCALAR"
    }
  ],
  "asset": {
    "extras": {
      "author": "georgiyhazankin (https://sketchfab.com/georgiyhazankin)",
      "license": "CC-BY-4.0 (http://creativecommons.org/licenses/by/4.0/)",
      "source": "https://sketchfab.com/3d-models/zsolnay-fountain-a3d182f3e0fb44dcbec52a60eba591dc",
      "title": "Zsolnay Fountain"
    },
    "generator": "Sketchfab-15.30.0",
    "version": "2.0"
  },
  "bufferViews": [
    {
      "buffer": 0,
      "byteLength": 2370780,
      "name": "floatBufferViews",
      "target": 34963
    },
    {
      "buffer": 0,
      "byteLength": 1610824,
      "byteOffset": 2370780,
      "byteStride": 8,
      "name": "floatBufferViews",
      "target": 34962
    },
    {
      "buffer": 0,
      "byteLength": 2654544,
      "byteOffset": 3981604,
      "byteStride": 12,
      "name": "floatBufferViews",
      "target": 34962
    }
  ],
  "buffers": [
    {
      "byteLength": 6636148,
      "uri": "scene.bin"
    }
  ],
  "extensionsRequired": [
    "KHR_materials_pbrSpecularGlossiness"
  ],
  "extensionsUsed": [
    "KHR_materials_pbrSpecularGlossiness"
  ],
  "images": [
    {
      "uri": "textures/Material_0_diffuse.jpeg"
    }
  ],
  "materials": [
    {
      "alphaMode": "BLEND",
      "doubleSided": true,
      "extensions": {
        "KHR_materials_pbrSpecularGlossiness": {
          "diffuseFactor": [
            1.0,
            1.0,
            1.0,
            0.0
          ],
          "glossinessFactor": 1.0,
          "specularFactor": [
            0.0,
            0.0,
            0.0
          ]
        }
      },
      "name": "BezierCurve__0"
    },
    {
      "doubleSided": true,
      "extensions": {
        "KHR_materials_pbrSpecularGlossiness": {
          "diffuseFactor": [
            1.0,
            1.0,
            1.0,
            1.0
          ],
          "diffuseTexture": {
            "index": 0
          },
          "glossinessFactor": 0.21775713462960403,
          "specularFactor": [
            0.0,
            0.0,
            0.0
          ]
        }
      },
      "name": "Material_0"
    }
  ],
  "meshes": [
    {
      "name": "BezierCurve__0",
      "primitives": [
        {
          "attributes": {
            "NORMAL": 1,
            "POSITION": 0,
            "TEXCOORD_0": 2
          },
          "indices": 3,
          "material": 0,
          "mode": 4
        }
      ]
    },
    {
      "name": "BezierCurve.001__0",
      "primitives": [
        {
          "attributes": {
            "NORMAL": 5,
            "POSITION": 4,
            "TEXCOORD_0": 6
          },
          "indices": 7,
          "material": 0,
          "mode": 4
        }
      ]
    },
    {
      "name": "BezierCurve.002__0",
      "primitives": [
        {
          "attributes": {
            "NORMAL": 9,
            "POSITION": 8,
            "TEXCOORD_0": 10
          },
          "indices": 11,
          "material": 0,
          "mode": 4
        }
      ]
    },
    {
      "name": "BezierCurve.003__0",
      "primitives": [
        {
          "attributes": {
            "NORMAL": 13,
            "POSITION": 12,
            "TEXCOORD_0": 14
          },
          "indices": 15,
          "material": 0,
          "mode": 4
        }
      ]
    },
    {
      "name": "BezierCurve.004__0",
      "primitives": [
        {
          "attributes": {
            "NORMAL": 17,
            "POSITION": 16,
            "TEXCOORD_0": 18
          },
          "indices": 19,
          "material": 0,
          "mode": 4
        }
      ]
    },
    {
      "name": "Mesh_0_Material_0_0",
      "primitives": [
        {
          "attributes": {
            "NORMAL": 21,
            "POSITION": 20,
            "TEXCOORD_0": 22,
            "TEXCOORD_1": 23
          },
          "indices": 24,
          "material": 1,
          "mode": 4
        }
      ]
    },
    {
      "name": "Mesh_0_Material_0_0",
      "primitives": [
        {
          "attributes": {
            "NORMAL": 26,
            "POSITION": 25,
            "TEXCOORD_0": 27,
            "TEXCOORD_1": 28
          },
          "indices": 29,
          "material": 1,
          "mode": 4
        }
      ]
    }
  ],
  "nodes": [
    {
      "children": [
        1
      ],
      "matrix": [
        1.0,
        0.0,
        0.0,
        0.0,
        0.0,
        2.220446049250313e-16,
        -1.0,
        0.0,
        0.0,
        1.0,
        2.220446049250313e-16,
        0.0,
        0.0,
        0.0,
        0.0,
        1.0
      ],
      "name": "Sketchfab_model"
    },
    {
      "children": [
        2
      ],
      "matrix": [
        0.009999999776482582,
        0.0,
        0.0,
        0.0,
        0.0,
        0.0,
        0.009999999776482582,
        0.0,
        0.0,
        -0.009999999776482582,
        0.0,
        0.0,
        0.0,
        0.0,
        0.0,
        1.0
      ],
      "name": "7f9fdc217aa2478c9a318e8ced50ae9c.fbx"
    },
    {
      "children": [
        3,
        5,
        7,
        9,
        11,
        13
      ],
      "name": "RootNode"
    },
    {
      "children": [
        4
      ],
      "matrix": [
        1.9470718859437852e-07,
        -0.9999999999999811,
        1.7049779990618852e-11,
        0.0,
        -0.9999998877775744,
        -1.9470717254803388e-07,
        -0.00032440023835172185,
        0.0,
        0.000324400238351719,
        4.6113280338195174e-11,
        -0.9999998877775935,
        0.0,
        58.780120849609375,
        -58.055423736572266,
        24.152963638305664,
        1.0
      ],
      "name": "BezierCurve"
    },
    {
      "mesh": 0,
      "name": "BezierCurve__0"
    },
    {
      "children": [
        6
      ],
      "matrix": [
        6.15584958731204e-08,
        -0.316159337759012,
        2.1372449825550327e-12,
        0.0,
        -0.3161592913210934,
        -6.155848754314112e-08,
        -0.00010256216097144861,
        0.0,
        0.0001025621609714471,
        1.7832345375627668e-11,
        -0.31615929132109943,
        0.0,
        57.12025833129883,
        -51.861785888671875,
        28.88981056213379,
        1.0
      ],
      "name": "BezierCurve.001"
    },
    {
      "mesh": 1,
      "name": "BezierCurve.001__0"
    },
    {
      "children": [
        8
      ],
      "matrix": [
        3.97718142505292e-08,
        -0.2042647451162299,
        4.567462390240777e-09,
        0.0,
        0.17800139714562122,
        3.6898622944531e-08,
        0.10019771765884629,
        0.0,
        -0.10019771765884519,
        -1.5529015184995613e-08,
        0.17800139714562496,
        0.0,
        -0.6619744300842285,
        65.0579833984375,
        43.1225700378418,
        1.0
      ],
      "name": "BezierCurve.002"
    },
    {
      "mesh": 2,
      "name": "BezierCurve.002__0"
    },
    {
      "children": [
        10
      ],
      "matrix": [
        1.542155919566332e-08,
        -0.20426474511623324,
        1.0941849545429239e-09,
        0.0,
        -0.14031329005360788,
        -9.798177057302434e-09,
        0.1484461745271059,
        0.0,
        -0.14844617452710543,
        -1.1958990567800757e-08,
        -0.14031329005360824,
        0.0,
        -13.389966011047363,
        71.20328521728516,
        16.4311466217041,
        1.0
      ],
      "name": "BezierCurve.003"
    },
    {
      "mesh": 3,
      "name": "BezierCurve.003__0"
    },
    {
      "children": [
        12
      ],
      "matrix": [
        -8.928696040626098e-09,
        -0.2042647451162336,
        5.195625778595326e-09,
        0.0,
        -0.019769180857475494,
        -4.3070966316606766e-09,
        -0.20330582750639695,
        0.0,
        0.20330582750639678,
        -9.389624193028369e-09,
        -0.019769180857475276,
        0.0,
        8.950079917907715,
        91.41348266601563,
        26.760292053222656,
        1.0
      ],
      "name": "BezierCurve.004"
    },
    {
      "mesh": 4,
      "name": "BezierCurve.004__0"
    },
    {
      "children": [
        14,
        15
      ],
      "matrix": [
        1.0,
        -6.005971484929097e-18,
        8.124109149749812e-20,
        0.0,
        6.005971484884562e-18,
        0.9996341226506061,
        -0.02704849039323407,
        0.0,
        8.12410947898633e-20,
        0.02704849039323407,
        0.9996341226506061,
        0.0,
        0.0,
        0.0,
        0.0,
        1.0
      ],
      "name": "Mesh_0"
    },
    {
      "mesh": 5,
      "name": "Mesh_0_Material_0_0"
    },
    {
      "mesh": 6,
      "name": "Mesh_0_Material_0_0"
    }
  ],
  "samplers": [
    {
      "magFilter": 9729,
      "minFilter": 9987,
      "wrapS": 10497,
      "wrapT": 10497
    }
  ],
  "scene": 0,
  "scenes": [
    {
      "name": "Sketchfab_Scene",
      "nodes": [
        0
      ]
    }
  ],
  "textures": [
    {
      "sampler": 0,
      "source": 0
    }
  ]
}
